<mxfile host="app.diagrams.net" agent="Mozilla/5.0 (Windows NT 10.0; Win64; x64) AppleWebKit/537.36 (KHTML, like Gecko) Chrome/137.0.0.0 Safari/537.36 Edg/137.0.0.0" version="27.1.1">
  <diagram name="Page-1" id="ILD6SGjTqY9E1Z1b6mkd">
    <mxGraphModel dx="916" dy="1024" grid="1" gridSize="10" guides="1" tooltips="1" connect="1" arrows="1" fold="1" page="1" pageScale="1" pageWidth="850" pageHeight="1100" math="0" shadow="0">
      <root>
        <mxCell id="0" />
        <mxCell id="1" parent="0" />
        <mxCell id="1qthTDrKOiryApjuwXg7-1" style="rounded=0;orthogonalLoop=1;jettySize=auto;html=1;exitX=1;exitY=0.5;exitDx=0;exitDy=0;" edge="1" parent="1" source="1qthTDrKOiryApjuwXg7-2">
          <mxGeometry relative="1" as="geometry">
            <mxPoint x="260" y="420" as="targetPoint" />
          </mxGeometry>
        </mxCell>
        <mxCell id="1qthTDrKOiryApjuwXg7-2" value="" style="ellipse;fillColor=strokeColor;html=1;" vertex="1" parent="1">
          <mxGeometry x="180" y="405" width="30" height="30" as="geometry" />
        </mxCell>
        <mxCell id="1qthTDrKOiryApjuwXg7-3" style="rounded=0;orthogonalLoop=1;jettySize=auto;html=1;exitX=0.5;exitY=1;exitDx=0;exitDy=0;" edge="1" parent="1" source="1qthTDrKOiryApjuwXg7-4">
          <mxGeometry relative="1" as="geometry">
            <mxPoint x="520" y="630" as="targetPoint" />
          </mxGeometry>
        </mxCell>
        <mxCell id="1qthTDrKOiryApjuwXg7-4" value="InProgress" style="swimlane;fontStyle=1;align=center;verticalAlign=middle;childLayout=stackLayout;horizontal=1;startSize=30;horizontalStack=0;resizeParent=0;resizeLast=1;container=0;fontColor=#000000;collapsible=0;rounded=1;arcSize=30;strokeColor=#ff0000;fillColor=#ffffc0;swimlaneFillColor=#ffffc0;dropTarget=0;" vertex="1" parent="1">
          <mxGeometry x="260" y="280" width="520" height="270" as="geometry" />
        </mxCell>
        <mxCell id="1qthTDrKOiryApjuwXg7-5" style="edgeStyle=orthogonalEdgeStyle;rounded=0;orthogonalLoop=1;jettySize=auto;html=1;exitX=0;exitY=0.5;exitDx=0;exitDy=0;entryX=1;entryY=0.5;entryDx=0;entryDy=0;" edge="1" parent="1" source="1qthTDrKOiryApjuwXg7-8" target="1qthTDrKOiryApjuwXg7-10">
          <mxGeometry relative="1" as="geometry" />
        </mxCell>
        <mxCell id="1qthTDrKOiryApjuwXg7-6" style="edgeStyle=orthogonalEdgeStyle;rounded=0;orthogonalLoop=1;jettySize=auto;html=1;exitX=0.75;exitY=1;exitDx=0;exitDy=0;entryX=0.75;entryY=0;entryDx=0;entryDy=0;" edge="1" parent="1" source="1qthTDrKOiryApjuwXg7-8" target="1qthTDrKOiryApjuwXg7-12">
          <mxGeometry relative="1" as="geometry" />
        </mxCell>
        <mxCell id="1qthTDrKOiryApjuwXg7-7" style="rounded=0;orthogonalLoop=1;jettySize=auto;html=1;entryX=0.5;entryY=0;entryDx=0;entryDy=0;exitX=1;exitY=0;exitDx=0;exitDy=0;" edge="1" parent="1" source="1qthTDrKOiryApjuwXg7-20">
          <mxGeometry relative="1" as="geometry">
            <mxPoint x="620" y="770" as="sourcePoint" />
            <mxPoint x="850" y="968" as="targetPoint" />
          </mxGeometry>
        </mxCell>
        <mxCell id="1qthTDrKOiryApjuwXg7-8" value="Published" style="swimlane;fontStyle=1;align=center;verticalAlign=middle;childLayout=stackLayout;horizontal=1;startSize=30;horizontalStack=0;resizeParent=0;resizeLast=1;container=0;fontColor=#000000;collapsible=0;rounded=1;arcSize=30;strokeColor=#ff0000;fillColor=#ffffc0;swimlaneFillColor=#ffffc0;dropTarget=0;" vertex="1" parent="1">
          <mxGeometry x="440" y="720" width="160" height="60" as="geometry" />
        </mxCell>
        <mxCell id="1qthTDrKOiryApjuwXg7-9" style="edgeStyle=orthogonalEdgeStyle;rounded=0;orthogonalLoop=1;jettySize=auto;html=1;exitX=0.5;exitY=1;exitDx=0;exitDy=0;entryX=0;entryY=0.5;entryDx=0;entryDy=0;" edge="1" parent="1" source="1qthTDrKOiryApjuwXg7-10" target="1qthTDrKOiryApjuwXg7-14">
          <mxGeometry relative="1" as="geometry" />
        </mxCell>
        <mxCell id="1qthTDrKOiryApjuwXg7-10" value="stored" style="swimlane;fontStyle=1;align=center;verticalAlign=middle;childLayout=stackLayout;horizontal=1;startSize=30;horizontalStack=0;resizeParent=0;resizeLast=1;container=0;fontColor=#000000;collapsible=0;rounded=1;arcSize=30;strokeColor=#ff0000;fillColor=#ffffc0;swimlaneFillColor=#ffffc0;dropTarget=0;" vertex="1" parent="1">
          <mxGeometry x="200" y="720" width="160" height="60" as="geometry" />
        </mxCell>
        <mxCell id="1qthTDrKOiryApjuwXg7-11" style="edgeStyle=orthogonalEdgeStyle;rounded=0;orthogonalLoop=1;jettySize=auto;html=1;exitX=0.25;exitY=0;exitDx=0;exitDy=0;entryX=0.25;entryY=1;entryDx=0;entryDy=0;" edge="1" parent="1" source="1qthTDrKOiryApjuwXg7-12" target="1qthTDrKOiryApjuwXg7-8">
          <mxGeometry relative="1" as="geometry" />
        </mxCell>
        <mxCell id="1qthTDrKOiryApjuwXg7-12" value="modified" style="swimlane;fontStyle=1;align=center;verticalAlign=middle;childLayout=stackLayout;horizontal=1;startSize=30;horizontalStack=0;resizeParent=0;resizeLast=1;container=0;fontColor=#000000;collapsible=0;rounded=1;arcSize=30;strokeColor=#ff0000;fillColor=#ffffc0;swimlaneFillColor=#ffffc0;dropTarget=0;" vertex="1" parent="1">
          <mxGeometry x="440" y="860" width="160" height="60" as="geometry" />
        </mxCell>
        <mxCell id="1qthTDrKOiryApjuwXg7-13" style="edgeStyle=orthogonalEdgeStyle;rounded=0;orthogonalLoop=1;jettySize=auto;html=1;exitX=1;exitY=0.5;exitDx=0;exitDy=0;" edge="1" parent="1" source="1qthTDrKOiryApjuwXg7-14" target="1qthTDrKOiryApjuwXg7-19">
          <mxGeometry relative="1" as="geometry">
            <mxPoint x="1050" y="1000.1538461538462" as="targetPoint" />
          </mxGeometry>
        </mxCell>
        <mxCell id="1qthTDrKOiryApjuwXg7-14" value="Deleted" style="swimlane;fontStyle=1;align=center;verticalAlign=middle;childLayout=stackLayout;horizontal=1;startSize=30;horizontalStack=0;resizeParent=0;resizeLast=1;container=0;fontColor=#000000;collapsible=0;rounded=1;arcSize=30;strokeColor=#ff0000;fillColor=#ffffc0;swimlaneFillColor=#ffffc0;dropTarget=0;" vertex="1" parent="1">
          <mxGeometry x="770" y="970" width="160" height="60" as="geometry" />
        </mxCell>
        <mxCell id="1qthTDrKOiryApjuwXg7-15" value="Lưu trữ" style="text;html=1;align=center;verticalAlign=middle;whiteSpace=wrap;rounded=0;" vertex="1" parent="1">
          <mxGeometry x="375" y="725" width="60" height="30" as="geometry" />
        </mxCell>
        <mxCell id="1qthTDrKOiryApjuwXg7-16" value="Cập nhật sửa đổi" style="text;html=1;align=center;verticalAlign=middle;whiteSpace=wrap;rounded=0;" vertex="1" parent="1">
          <mxGeometry x="560" y="810" width="80" height="30" as="geometry" />
        </mxCell>
        <mxCell id="1qthTDrKOiryApjuwXg7-17" value="Lưu thay đổi" style="text;html=1;align=center;verticalAlign=middle;whiteSpace=wrap;rounded=0;" vertex="1" parent="1">
          <mxGeometry x="405" y="800" width="80" height="30" as="geometry" />
        </mxCell>
        <mxCell id="1qthTDrKOiryApjuwXg7-18" value="Xóa loại thiết bị&amp;nbsp;" style="text;html=1;align=center;verticalAlign=middle;whiteSpace=wrap;rounded=0;" vertex="1" parent="1">
          <mxGeometry x="470" y="970" width="90" height="32.5" as="geometry" />
        </mxCell>
        <mxCell id="1qthTDrKOiryApjuwXg7-19" value="" style="ellipse;html=1;shape=endState;fillColor=strokeColor;" vertex="1" parent="1">
          <mxGeometry x="1060" y="985.0038461538462" width="30" height="30" as="geometry" />
        </mxCell>
        <mxCell id="1qthTDrKOiryApjuwXg7-20" value="do/ sendUser(self)" style="text;html=1;align=center;verticalAlign=middle;whiteSpace=wrap;rounded=0;" vertex="1" parent="1">
          <mxGeometry x="465" y="750" width="110" height="30" as="geometry" />
        </mxCell>
        <mxCell id="1qthTDrKOiryApjuwXg7-21" style="edgeStyle=orthogonalEdgeStyle;rounded=0;orthogonalLoop=1;jettySize=auto;html=1;exitX=1;exitY=0.75;exitDx=0;exitDy=0;entryX=0;entryY=0.75;entryDx=0;entryDy=0;" edge="1" parent="1" source="1qthTDrKOiryApjuwXg7-22" target="1qthTDrKOiryApjuwXg7-24">
          <mxGeometry relative="1" as="geometry" />
        </mxCell>
        <mxCell id="1qthTDrKOiryApjuwXg7-22" value="draft" style="swimlane;fontStyle=1;align=center;verticalAlign=middle;childLayout=stackLayout;horizontal=1;startSize=30;horizontalStack=0;resizeParent=0;resizeLast=1;container=0;fontColor=#000000;collapsible=0;rounded=1;arcSize=30;strokeColor=#ff0000;fillColor=#ffffc0;swimlaneFillColor=#ffffc0;dropTarget=0;" vertex="1" parent="1">
          <mxGeometry x="380" y="405" width="80" height="60" as="geometry" />
        </mxCell>
        <mxCell id="1qthTDrKOiryApjuwXg7-23" style="rounded=0;orthogonalLoop=1;jettySize=auto;html=1;exitX=0.25;exitY=0;exitDx=0;exitDy=0;" edge="1" parent="1" source="1qthTDrKOiryApjuwXg7-24">
          <mxGeometry relative="1" as="geometry">
            <mxPoint x="600" y="360" as="targetPoint" />
          </mxGeometry>
        </mxCell>
        <mxCell id="1qthTDrKOiryApjuwXg7-24" value="pending" style="swimlane;fontStyle=1;align=center;verticalAlign=middle;childLayout=stackLayout;horizontal=1;startSize=30;horizontalStack=0;resizeParent=0;resizeLast=1;container=0;fontColor=#000000;collapsible=0;rounded=1;arcSize=30;strokeColor=#ff0000;fillColor=#ffffc0;swimlaneFillColor=#ffffc0;dropTarget=0;" vertex="1" parent="1">
          <mxGeometry x="650" y="405" width="80" height="60" as="geometry" />
        </mxCell>
        <mxCell id="1qthTDrKOiryApjuwXg7-25" value="Kiểm tra/sendTester(self)" style="text;html=1;align=center;verticalAlign=middle;whiteSpace=wrap;rounded=0;" vertex="1" parent="1">
          <mxGeometry x="480" y="430" width="155" height="30" as="geometry" />
        </mxCell>
        <mxCell id="1qthTDrKOiryApjuwXg7-26" value="rejected" style="swimlane;fontStyle=1;align=center;verticalAlign=middle;childLayout=stackLayout;horizontal=1;startSize=25;horizontalStack=0;resizeParent=0;resizeLast=1;container=0;fontColor=#000000;collapsible=0;rounded=1;arcSize=32;strokeColor=#ff0000;fillColor=#ffffc0;swimlaneFillColor=#ffffc0;dropTarget=0;" vertex="1" parent="1">
          <mxGeometry x="520" y="330" width="80" height="60" as="geometry" />
        </mxCell>
        <mxCell id="1qthTDrKOiryApjuwXg7-27" value="Từ chối/ sendEngineer(status)" style="text;html=1;align=center;verticalAlign=middle;whiteSpace=wrap;rounded=0;" vertex="1" parent="1">
          <mxGeometry x="650" y="360" width="110" height="30" as="geometry" />
        </mxCell>
        <mxCell id="1qthTDrKOiryApjuwXg7-28" style="rounded=0;orthogonalLoop=1;jettySize=auto;html=1;exitX=0;exitY=0.5;exitDx=0;exitDy=0;entryX=0.61;entryY=0.027;entryDx=0;entryDy=0;entryPerimeter=0;" edge="1" parent="1" source="1qthTDrKOiryApjuwXg7-26" target="1qthTDrKOiryApjuwXg7-22">
          <mxGeometry relative="1" as="geometry" />
        </mxCell>
        <mxCell id="1qthTDrKOiryApjuwXg7-29" value="Chỉnh sửa" style="text;html=1;align=center;verticalAlign=middle;whiteSpace=wrap;rounded=0;" vertex="1" parent="1">
          <mxGeometry x="405" y="360" width="85" height="30" as="geometry" />
        </mxCell>
        <mxCell id="1qthTDrKOiryApjuwXg7-30" style="edgeStyle=orthogonalEdgeStyle;rounded=0;orthogonalLoop=1;jettySize=auto;html=1;exitX=1;exitY=0.5;exitDx=0;exitDy=0;entryX=0;entryY=0.5;entryDx=0;entryDy=0;" edge="1" parent="1" source="1qthTDrKOiryApjuwXg7-31" target="1qthTDrKOiryApjuwXg7-22">
          <mxGeometry relative="1" as="geometry" />
        </mxCell>
        <mxCell id="1qthTDrKOiryApjuwXg7-31" value="" style="ellipse;fillColor=strokeColor;html=1;" vertex="1" parent="1">
          <mxGeometry x="290" y="420" width="30" height="30" as="geometry" />
        </mxCell>
        <mxCell id="1qthTDrKOiryApjuwXg7-32" value="Chấp nhận/sendAdmid(self, status)" style="text;html=1;align=center;verticalAlign=middle;whiteSpace=wrap;rounded=0;" vertex="1" parent="1">
          <mxGeometry x="506.25" y="570" width="187.5" height="30" as="geometry" />
        </mxCell>
        <mxCell id="1qthTDrKOiryApjuwXg7-33" style="edgeStyle=orthogonalEdgeStyle;rounded=0;orthogonalLoop=1;jettySize=auto;html=1;exitX=0.5;exitY=1;exitDx=0;exitDy=0;entryX=0.5;entryY=0;entryDx=0;entryDy=0;" edge="1" parent="1" source="1qthTDrKOiryApjuwXg7-34" target="1qthTDrKOiryApjuwXg7-8">
          <mxGeometry relative="1" as="geometry" />
        </mxCell>
        <mxCell id="1qthTDrKOiryApjuwXg7-34" value="Approved" style="swimlane;fontStyle=1;align=center;verticalAlign=middle;childLayout=stackLayout;horizontal=1;startSize=30;horizontalStack=0;resizeParent=0;resizeLast=1;container=0;fontColor=#000000;collapsible=0;rounded=1;arcSize=30;strokeColor=#ff0000;fillColor=#ffffc0;swimlaneFillColor=#ffffc0;dropTarget=0;" vertex="1" parent="1">
          <mxGeometry x="440" y="610" width="160" height="60" as="geometry" />
        </mxCell>
        <mxCell id="1qthTDrKOiryApjuwXg7-35" value="Phát hành" style="text;html=1;align=center;verticalAlign=middle;whiteSpace=wrap;rounded=0;" vertex="1" parent="1">
          <mxGeometry x="466.25" y="680" width="187.5" height="30" as="geometry" />
        </mxCell>
        <mxCell id="1qthTDrKOiryApjuwXg7-36" value="Xóa thành công" style="text;html=1;align=center;verticalAlign=middle;resizable=0;points=[];autosize=1;strokeColor=none;fillColor=none;" vertex="1" parent="1">
          <mxGeometry x="940" y="970" width="110" height="30" as="geometry" />
        </mxCell>
        <mxCell id="1qthTDrKOiryApjuwXg7-37" value="Xóa loại thiết bị&amp;nbsp;" style="text;html=1;align=center;verticalAlign=middle;whiteSpace=wrap;rounded=0;" vertex="1" parent="1">
          <mxGeometry x="740" y="850" width="90" height="32.5" as="geometry" />
        </mxCell>
      </root>
    </mxGraphModel>
  </diagram>
</mxfile>
